<svg width="48" height="48" viewBox="0 0 48 48" fill="none" xmlns="http://www.w3.org/2000/svg">
    <mask id="mask0_796_825" style="mask-type:alpha" maskUnits="userSpaceOnUse" x="0" y="0" width="48" height="48">
        <rect width="48" height="48" fill="#D9D9D9" />
    </mask>
    <g mask="url(#mask0_796_825)">
        <path
            d="M39.85 43.2507C35.7833 43.2507 31.6667 42.284 27.5 40.3507C23.3333 38.4174 19.4833 35.684 15.95 32.1507C12.3833 28.584 9.625 24.709 7.675 20.5257C5.725 16.3424 4.75 12.234 4.75 8.20068C4.75 7.23402 5.08333 6.40902 5.75 5.72568C6.41667 5.04235 7.23333 4.70068 8.2 4.70068H15.2C16.2333 4.70068 17.075 4.97568 17.725 5.52568C18.375 6.07568 18.8167 6.86735 19.05 7.90068L20.4 13.4007C20.5333 14.2674 20.5083 15.034 20.325 15.7007C20.1417 16.3674 19.7833 16.934 19.25 17.4007L16.4854 19.9261C15.0712 21.2179 14.7506 23.3475 15.8929 24.885C16.0598 25.1097 16.2288 25.3316 16.4 25.5507C17.2333 26.6174 18.1833 27.6507 19.25 28.6507C20.35 29.8174 21.4583 30.834 22.575 31.7007C22.8797 31.9371 23.1862 32.1637 23.4946 32.3803C24.9232 33.3837 26.8353 33.0571 28.0636 31.8165L31 28.8507C31.5667 28.2507 32.2 27.8507 32.9 27.6507C33.6 27.4507 34.35 27.4507 35.15 27.6507L40.1 28.8007C41.1333 29.1007 41.925 29.584 42.475 30.2507C43.025 30.9174 43.3 31.7507 43.3 32.7507V39.8007C43.3 40.7674 42.9583 41.584 42.275 42.2507C41.5917 42.9173 40.7833 43.2507 39.85 43.2507Z"
            fill="white" />
    </g>
</svg>