<svg width="48" height="48" viewBox="0 0 48 48" fill="none" xmlns="http://www.w3.org/2000/svg">
    <mask id="mask0_796_828" style="mask-type:alpha" maskUnits="userSpaceOnUse" x="0" y="0" width="48" height="48">
        <rect width="48" height="48" fill="#D9D9D9" />
    </mask>
    <g mask="url(#mask0_796_828)">
        <path
            d="M7.45 41.2502C6.14833 41.2502 5.0395 40.7922 4.1235 39.8762C3.20783 38.9605 2.75 37.8519 2.75 36.5502V11.4502C2.75 10.1349 3.20783 9.01436 4.1235 8.0887C5.0395 7.16303 6.14833 6.7002 7.45 6.7002H40.55C41.8653 6.7002 42.9858 7.16303 43.9115 8.0887C44.8372 9.01436 45.3 10.1349 45.3 11.4502V36.5502C45.3 37.8519 44.8372 38.9605 43.9115 39.8762C42.9858 40.7922 41.8653 41.2502 40.55 41.2502H7.45ZM21.765 24.9945C23.116 25.9046 24.884 25.9046 26.235 24.9945L39.8294 15.8357C40.2799 15.5322 40.55 15.0245 40.55 14.4813V14.4813C40.55 13.1811 39.1045 12.4022 38.0186 13.1174L26.2001 20.9012C24.8651 21.7804 23.1349 21.7804 21.7999 20.9012L9.98139 13.1174C8.89552 12.4022 7.45 13.1811 7.45 14.4813V14.4813C7.45 15.0245 7.72011 15.5322 8.17063 15.8357L21.765 24.9945Z"
            fill="white" />
    </g>
</svg>