<svg width="32" height="32" viewBox="0 0 32 32" fill="none" xmlns="http://www.w3.org/2000/svg">
    <mask id="mask0_114_158" style="mask-type:alpha" maskUnits="userSpaceOnUse" x="0" y="0" width="32" height="32">
        <rect width="32" height="32" fill="#D9D9D9" />
    </mask>
    <g mask="url(#mask0_114_158)">
        <path
            d="M16 30.1665C15.3556 30.1665 14.7556 30.0276 14.2 29.7498C13.7814 29.5405 13.4701 29.2524 13.266 28.8854C13.1442 28.6665 12.93 28.4998 12.6795 28.4998C12.6488 28.4998 12.618 28.4974 12.5878 28.4921C11.9192 28.3742 11.3621 28.0519 10.9167 27.5251C10.4611 26.9865 10.2333 26.378 10.2333 25.6998V22.402C10.2333 21.7526 9.91048 21.1524 9.41349 20.7344C8.31147 19.8076 7.42364 18.7205 6.75 17.4731C5.91667 15.93 5.5 14.2167 5.5 12.3331C5.5 9.42958 6.52222 6.94814 8.56667 4.8888C10.6111 2.82947 13.0862 1.7998 15.992 1.7998C18.8978 1.7998 21.3811 2.82947 23.442 4.8888C25.5029 6.94814 26.5333 9.42958 26.5333 12.3331C26.5333 14.222 26.1111 15.9387 25.2667 17.4831C24.5851 18.7297 23.7009 19.8133 22.614 20.7341C22.1205 21.1523 21.8 21.7506 21.8 22.3975V25.6998C21.8 26.378 21.5667 26.9865 21.1 27.5251C20.6447 28.0507 20.0942 28.3728 19.4485 28.4913C19.4163 28.4972 19.3836 28.4998 19.3508 28.4998C19.1003 28.4998 18.884 28.6617 18.7567 28.8774C18.5378 29.2482 18.2134 29.539 17.7833 29.7498C17.2167 30.0276 16.6222 30.1665 16 30.1665ZM13.3667 24.9665C13.3667 25.3715 13.695 25.6998 14.1 25.6998H17.9C18.305 25.6998 18.6333 25.3715 18.6333 24.9665C18.6333 24.5615 18.305 24.2331 17.9 24.2331H14.1C13.695 24.2331 13.3667 24.5615 13.3667 24.9665ZM13.3667 22.2331C13.3667 22.6013 13.6651 22.8998 14.0333 22.8998H17.9667C18.3349 22.8998 18.6333 22.6013 18.6333 22.2331C18.6333 21.8649 18.3349 21.5665 17.9667 21.5665H14.0333C13.6651 21.5665 13.3667 21.8649 13.3667 22.2331ZM16 19.2665C16.5339 19.2665 16.9667 18.8337 16.9667 18.2998V15.8949C16.9667 15.3645 17.1774 14.8558 17.5525 14.4807L19.45 12.5831C19.809 12.2242 19.809 11.6421 19.45 11.2831C19.091 10.9242 18.509 10.9242 18.15 11.2831L17.4 12.0331C16.6268 12.8063 15.3732 12.8063 14.6 12.0331L13.85 11.2831C13.491 10.9242 12.909 10.9242 12.55 11.2831C12.191 11.6421 12.191 12.2242 12.55 12.5831L14.4475 14.4807C14.8226 14.8558 15.0333 15.3645 15.0333 15.8949V18.2998C15.0333 18.8337 15.4661 19.2665 16 19.2665Z"
            fill="white" />
    </g>
</svg>