<svg width="32" height="32" viewBox="0 0 32 32" fill="none" xmlns="http://www.w3.org/2000/svg">
    <mask id="mask0_114_159" style="mask-type:alpha" maskUnits="userSpaceOnUse" x="0" y="0" width="32" height="32">
        <rect width="32" height="32" fill="#D9D9D9" />
    </mask>
    <g mask="url(#mask0_114_159)">
        <path
            d="M5.61527 29.8333C5.19977 29.8333 4.80128 29.6682 4.50748 29.3744C3.52053 28.3875 4.21952 26.7 5.61527 26.7H26.3889C27.7887 26.7 28.4858 28.3958 27.4908 29.3803C27.1975 29.6705 26.8016 29.8333 26.3889 29.8333H5.61527ZM4.57274 24.6666C3.82993 24.6666 3.24927 23.9827 3.65267 23.359C3.77293 23.1731 3.89858 22.9923 4.02964 22.8164C4.31824 22.429 4.49967 21.9672 4.49967 21.4842V12.2333C4.49967 11.8651 4.2012 11.5666 3.83301 11.5666C3.46482 11.5666 3.16634 11.2682 3.16634 10.9V10.1666C3.16634 9.79844 3.46482 9.49997 3.83301 9.49997H3.94967C4.25343 9.49997 4.49967 9.25372 4.49967 8.94997C4.49967 8.64621 4.25343 8.39997 3.94967 8.39997H3.83301C3.46482 8.39997 3.16634 8.10149 3.16634 7.7333V6.99997C3.16634 6.63178 3.46482 6.3333 3.83301 6.3333H3.94967C4.25343 6.3333 4.49967 6.08706 4.49967 5.7833C4.49967 5.47954 4.25343 5.2333 3.94967 5.2333H3.83301C3.46482 5.2333 3.16634 4.93482 3.16634 4.56663V4.1833C3.16634 3.6034 3.63644 3.1333 4.21634 3.1333H12.2663C12.9941 3.1333 13.6206 3.39575 14.1457 3.92063C14.6706 4.44574 14.933 5.07219 14.933 5.79997C14.933 6.09452 15.1718 6.3333 15.4663 6.3333H26.4997C27.0704 6.3333 27.533 6.79594 27.533 7.36663C27.533 7.93733 27.0704 8.39997 26.4997 8.39997H15.4663C15.1718 8.39997 14.933 8.63875 14.933 8.9333C14.933 9.66108 14.6761 10.2819 14.1623 10.7956C13.6483 11.3096 13.0275 11.5666 12.2997 11.5666C11.1951 11.5666 10.2997 12.4621 10.2997 13.5666V19.4691C10.2997 19.9011 10.6534 20.2377 11.0197 20.4666C11.339 20.6662 11.7818 20.5273 11.92 20.1771C12.4393 18.8617 13.2976 17.7916 14.4947 16.9666C15.9136 15.9889 17.5152 15.5 19.2997 15.5C21.5799 15.5 23.5221 16.3055 25.1263 17.9166C26.7308 19.5277 27.533 21.4666 27.533 23.7333C27.533 24.2488 27.1151 24.6666 26.5997 24.6666H4.57274ZM16.6393 19.4333C15.5203 20.1445 16.3825 21.5 17.7085 21.5H20.9924C22.3077 21.5 23.2014 20.1547 22.0882 19.4541C22.0591 19.4358 22.0296 19.4177 21.9997 19.4C21.1775 18.9111 20.2775 18.6666 19.2997 18.6666C18.3303 18.6666 17.4436 18.9222 16.6393 19.4333ZM10.2997 5.7833C10.2997 6.08706 10.5459 6.3333 10.8497 6.3333H12.3163C12.6201 6.3333 12.8663 6.08706 12.8663 5.7833C12.8663 5.47954 12.6201 5.2333 12.3163 5.2333H10.8497C10.5459 5.2333 10.2997 5.47954 10.2997 5.7833ZM10.2997 8.94997C10.2997 9.25372 10.5459 9.49997 10.8497 9.49997H12.3163C12.6201 9.49997 12.8663 9.25372 12.8663 8.94997C12.8663 8.64621 12.6201 8.39997 12.3163 8.39997H10.8497C10.5459 8.39997 10.2997 8.64621 10.2997 8.94997ZM6.56634 5.7833C6.56634 6.08706 6.81258 6.3333 7.11634 6.3333H7.68301C7.98676 6.3333 8.23301 6.08706 8.23301 5.7833C8.23301 5.47954 7.98676 5.2333 7.68301 5.2333H7.11634C6.81258 5.2333 6.56634 5.47954 6.56634 5.7833ZM6.56634 8.94997C6.56634 9.25372 6.81258 9.49997 7.11634 9.49997H7.68301C7.98676 9.49997 8.23301 9.25372 8.23301 8.94997C8.23301 8.64621 7.98676 8.39997 7.68301 8.39997H7.11634C6.81258 8.39997 6.56634 8.64621 6.56634 8.94997ZM6.56634 19.8898C6.56634 20.2432 6.99906 20.4656 7.33301 20.35C7.82225 20.1806 8.23301 19.7671 8.23301 19.2494V12.4C8.23301 11.9397 7.85991 11.5666 7.39967 11.5666C6.93944 11.5666 6.56634 11.9397 6.56634 12.4V19.8898Z"
            fill="white" />
    </g>
</svg>