<svg width="32" height="32" viewBox="0 0 32 32" fill="none" xmlns="http://www.w3.org/2000/svg">
    <mask id="mask0_114_162" style="mask-type:alpha" maskUnits="userSpaceOnUse" x="0" y="0" width="32" height="32">
        <rect width="32" height="32" fill="#D9D9D9" />
    </mask>
    <g mask="url(#mask0_114_162)">
        <path
            d="M2.56641 21.8669C1.46184 21.8669 0.526661 20.953 0.827429 19.8902C1.25311 18.386 2.19943 17.1449 3.66641 16.1669C5.73307 14.7891 8.07752 14.1002 10.6997 14.1002C13.2997 14.1002 15.6386 14.7891 17.7164 16.1669C19.1913 17.1449 20.1428 18.3861 20.5707 19.8905C20.8729 20.9529 19.9376 21.8669 18.8331 21.8669H2.56641ZM2.06641 26.6336C1.23798 26.6336 0.566406 25.962 0.566406 25.1336C0.566406 24.3051 1.23798 23.6336 2.06641 23.6336H19.3331C20.1615 23.6336 20.8331 24.3051 20.8331 25.1336C20.8331 25.962 20.1615 26.6336 19.3331 26.6336H2.06641ZM2.13307 31.4336C1.69418 31.4336 1.32341 31.2821 1.02074 30.9792C0.717851 30.6766 0.566406 30.3058 0.566406 29.8669C0.566406 29.0569 1.22306 28.4002 2.03307 28.4002H19.3664C20.1764 28.4002 20.8331 29.0569 20.8331 29.8669C20.8331 30.3058 20.6817 30.6766 20.3791 30.9792C20.0762 31.2821 19.7053 31.4336 19.2664 31.4336H2.13307ZM24.8331 31.4336C23.7285 31.4336 22.8331 30.5381 22.8331 29.4336V21.5002C22.8331 19.2236 22.0886 17.2377 20.5997 15.5426C19.4297 14.2106 18.0263 13.2579 16.3897 12.6845C15.5765 12.3996 14.9326 11.7227 14.8331 10.8669L14.5925 8.7979C14.4543 7.6098 15.383 6.56689 16.5791 6.56689H19.1997C20.3043 6.56689 21.1997 5.67146 21.1997 4.56689V1.95023C21.1997 1.18623 21.8191 0.566895 22.5831 0.566895C23.3471 0.566895 23.9664 1.18623 23.9664 1.95023V4.5669C23.9664 5.67146 24.8618 6.56689 25.9664 6.56689H29.2134C30.4001 6.56689 31.3258 7.59424 31.2026 8.77454L29.1331 28.6002C29.0373 29.428 28.6911 30.1071 28.0944 30.6376C27.498 31.1682 26.7886 31.4336 25.9664 31.4336H24.8331Z"
            fill="white" />
    </g>
</svg>