<svg width="32" height="32" viewBox="0 0 32 32" fill="none" xmlns="http://www.w3.org/2000/svg">
    <mask id="mask0_114_163" style="mask-type:alpha" maskUnits="userSpaceOnUse" x="0" y="0" width="32" height="32">
        <rect width="32" height="32" fill="#D9D9D9" />
    </mask>
    <g mask="url(#mask0_114_163)">
        <path
            d="M10.6789 31.2335C9.77468 31.2335 9.09529 30.4081 9.26912 29.5207L13.0669 10.1335C13.178 9.51127 13.4725 9.02794 13.9503 8.6835C14.428 8.33905 14.9336 8.16683 15.4669 8.16683C15.978 8.16683 16.4614 8.2835 16.9169 8.51683C17.3725 8.75016 17.7447 9.08905 18.0336 9.5335L19.3003 11.6668C19.7225 12.3779 20.2392 12.9668 20.8503 13.4335C21.0875 13.6147 21.339 13.7807 21.6047 13.9318C22.2426 14.2944 22.9669 13.7757 22.9669 13.0419V13.0002C22.9669 12.4295 23.4296 11.9668 24.0003 11.9668C24.571 11.9668 25.0336 12.4295 25.0336 13.0002V30.2002C25.0336 30.7709 24.571 31.2335 24.0003 31.2335C23.4296 31.2335 22.9669 30.7709 22.9669 30.2002V18.9799C22.9669 18.0538 22.3215 17.2668 21.4677 16.9082C21.0472 16.7316 20.6303 16.5234 20.2169 16.2835C20.1801 16.2621 20.1434 16.2406 20.1068 16.2187C18.9862 15.5506 17.3566 16.0486 17.1049 17.3288C16.9982 17.8715 17.1762 18.4311 17.5769 18.8124L19.0791 20.2423C19.4758 20.6198 19.7003 21.1434 19.7003 21.691V29.8668C19.7003 30.6216 19.0884 31.2335 18.3336 31.2335C17.5788 31.2335 16.9669 30.6216 16.9669 29.8668V23.6684C16.9669 23.1991 16.7745 22.7504 16.4345 22.427C15.4677 21.5074 13.8673 21.997 13.5804 23.3L12.0819 30.1058C11.9369 30.7644 11.3533 31.2335 10.6789 31.2335ZM9.42373 16.3025C9.20835 17.3869 8.15396 18.0909 7.06981 17.8741L6.36694 17.7335C5.98916 17.6668 5.67805 17.4446 5.4336 17.0668C5.18916 16.6891 5.10027 16.3113 5.16694 15.9335L6.16694 10.7002C6.32249 9.92239 6.73916 9.30572 7.41694 8.85016C8.09471 8.39461 8.82249 8.24461 9.60027 8.40016C10.342 8.56706 10.8155 9.2949 10.6674 10.0406L9.42373 16.3025ZM17.6669 6.50016C16.8892 6.50016 16.228 6.21683 15.6836 5.65016C15.1392 5.0835 14.8669 4.42238 14.8669 3.66683C14.8669 2.88905 15.1392 2.22239 15.6836 1.66683C16.228 1.11127 16.8892 0.833496 17.6669 0.833496C18.4447 0.833496 19.1058 1.11127 19.6503 1.66683C20.1947 2.22239 20.4669 2.88905 20.4669 3.66683C20.4669 4.42238 20.1947 5.0835 19.6503 5.65016C19.1058 6.21683 18.4447 6.50016 17.6669 6.50016Z"
            fill="white" />
    </g>
</svg>