<svg width="32" height="32" viewBox="0 0 32 32" fill="none" xmlns="http://www.w3.org/2000/svg">
    <mask id="mask0_114_166" style="mask-type:alpha" maskUnits="userSpaceOnUse" x="0" y="0" width="32" height="32">
        <rect width="32" height="32" fill="#D9D9D9" />
    </mask>
    <g mask="url(#mask0_114_166)">
        <path
            d="M4.73301 29.2331C3.91923 29.2331 3.23245 28.95 2.67267 28.3838C2.1129 27.8176 1.83301 27.1229 1.83301 26.2998V23.1331C1.83301 22.0286 2.72844 21.1331 3.83301 21.1331H28.1997C29.3042 21.1331 30.1997 22.0286 30.1997 23.1331V26.2998C30.1997 27.1229 29.9166 27.8176 29.3503 28.3838C28.7841 28.95 28.0895 29.2331 27.2663 29.2331H4.73301ZM15.9997 17.6998C15.0886 17.6998 14.3719 17.9443 13.8497 18.4331C13.3275 18.922 12.4552 19.1665 11.233 19.1665C10.0108 19.1665 9.15834 18.922 8.67567 18.4331C8.19301 17.9443 7.50056 17.6998 6.59834 17.6998C5.69612 17.6998 4.98345 17.9443 4.46034 18.4331C4.17181 18.7029 3.77583 18.8982 3.27241 19.0192C2.49374 19.2062 1.83301 18.5173 1.83301 17.7165C1.83301 16.9157 2.5157 16.2935 3.22954 15.9306C3.43986 15.8236 3.64446 15.6912 3.84334 15.5331C4.45867 15.0442 5.37745 14.7998 6.59967 14.7998C7.8219 14.7998 8.67434 15.0442 9.15701 15.5331C9.63967 16.022 10.3321 16.2665 11.2343 16.2665C12.1366 16.2665 12.8508 16.022 13.377 15.5331C13.9032 15.0442 14.7775 14.7998 15.9997 14.7998C17.2219 14.7998 18.0941 15.0442 18.6163 15.5331C19.1386 16.022 19.8608 16.2665 20.783 16.2665C21.7052 16.2665 22.3997 16.022 22.8663 15.5331C23.333 15.0442 24.183 14.7998 25.4163 14.7998C26.6497 14.7998 27.5663 15.0442 28.1663 15.5331C28.3685 15.6979 28.5795 15.8349 28.7994 15.9441C29.5166 16.3004 30.1997 16.9157 30.1997 17.7165C30.1997 18.5173 29.5385 19.2071 28.7606 19.0171C28.2648 18.896 27.8753 18.7014 27.592 18.4331C27.0758 17.9443 26.3672 17.6998 25.4663 17.6998C24.533 17.6998 23.8275 17.9443 23.3497 18.4331C22.8719 18.922 22.0163 19.1665 20.783 19.1665C19.5497 19.1665 18.6719 18.922 18.1497 18.4331C17.6275 17.9443 16.9108 17.6998 15.9997 17.6998ZM3.79968 12.8998C2.71352 12.8998 1.83301 12.0193 1.83301 10.9331C1.83301 8.71092 3.11634 6.79981 5.68301 5.1998C8.24967 3.5998 11.683 2.7998 15.983 2.7998C20.3275 2.7998 23.783 3.5998 26.3497 5.1998C28.9163 6.79981 30.1997 8.71092 30.1997 10.9331C30.1997 12.0193 29.3192 12.8998 28.233 12.8998H3.79968Z"
            fill="white" />
    </g>
</svg>