<svg width="32" height="32" viewBox="0 0 32 32" fill="none" xmlns="http://www.w3.org/2000/svg">
    <mask id="mask0_114_156" style="mask-type:alpha" maskUnits="userSpaceOnUse" x="0" y="0" width="32" height="32">
        <rect width="32" height="32" fill="#D9D9D9" />
    </mask>
    <g mask="url(#mask0_114_156)">
        <path
            d="M16.1237 29.8333C14.197 29.8333 12.3883 29.4656 10.6977 28.73C9.00699 27.9944 7.53033 26.9953 6.26766 25.7327C5.00499 24.47 4.00588 22.9933 3.27033 21.3027C2.53477 19.612 2.16699 17.8033 2.16699 15.8767C2.16699 12.4156 3.28366 9.38756 5.51699 6.79267C7.15011 4.895 9.08921 3.53075 11.3343 2.69991C12.5928 2.23418 13.7723 3.34926 13.8196 4.69032C13.8662 6.0094 14.0653 7.31263 14.417 8.6C15.0059 10.7556 16.1114 12.6333 17.7337 14.2333C19.3114 15.8333 21.1837 16.9278 23.3503 17.5167C24.6923 17.8814 26.0492 18.1034 27.421 18.1825C28.7157 18.2572 29.7618 19.4079 29.3257 20.6292C28.5117 22.9086 27.1392 24.8711 25.208 26.5167C22.6129 28.7278 19.5848 29.8333 16.1237 29.8333Z"
            fill="white" />
    </g>
</svg>