<svg width="32" height="32" viewBox="0 0 32 32" fill="none" xmlns="http://www.w3.org/2000/svg">
    <mask id="mask0_114_164" style="mask-type:alpha" maskUnits="userSpaceOnUse" x="0" y="0" width="32" height="32">
        <rect width="32" height="32" fill="#D9D9D9" />
    </mask>
    <g mask="url(#mask0_114_164)">
        <path
            d="M8.70046 27.0331C8.00423 27.0331 7.43568 26.8124 6.99479 26.3708C6.55412 25.9293 6.33379 25.3597 6.33379 24.6621C6.33379 24.1761 6.45601 23.7165 6.70046 23.2831C6.9449 22.8498 7.2919 22.5443 7.74146 22.3665L12.4999 20.4893C12.9427 20.3146 13.2338 19.8869 13.2338 19.4109C13.2338 18.3539 11.9 17.8183 11.0857 18.4922C10.3128 19.1318 9.53998 19.6621 8.76712 20.0831C7.64296 20.6956 6.39212 21.0768 5.0146 21.2268C4.25509 21.3095 3.63379 20.6805 3.63379 19.9165C3.63379 19.1525 4.25616 18.5453 5.01314 18.442C6.05522 18.2998 7.01899 17.9913 7.90446 17.5165C9.16846 16.8387 10.2671 15.8887 11.2005 14.6665L13.1338 12.4665C13.3876 12.1554 13.6892 11.9054 14.0388 11.7165C14.3881 11.5276 14.7753 11.4331 15.2005 11.4331H16.8005C17.2256 11.4331 17.6183 11.5331 17.9788 11.7331C18.3395 11.9331 18.6467 12.1887 18.9005 12.4998L20.8338 14.7331C21.8338 15.9109 22.9436 16.8387 24.1631 17.5165C25.0158 17.9904 25.9574 18.2986 26.9878 18.4411C27.7446 18.5458 28.3671 19.1525 28.3671 19.9165C28.3671 20.6805 27.7458 21.3096 26.9865 21.2253C25.6247 21.0743 24.3794 20.6936 23.2505 20.0831C22.4707 19.6615 21.6924 19.1302 20.9156 18.4893C20.1007 17.817 18.7671 18.3528 18.7671 19.4092C18.7671 19.886 19.0593 20.3142 19.5033 20.4881L24.3005 22.3665C24.7227 22.5443 25.056 22.8493 25.3005 23.2815C25.5449 23.7137 25.6671 24.172 25.6671 24.6565C25.6671 25.352 25.4468 25.922 25.0061 26.3665C24.5652 26.8109 23.9967 27.0331 23.3005 27.0331H13.9338C13.5288 27.0331 13.2005 26.7048 13.2005 26.2998C13.2005 25.6554 13.3838 25.172 13.7505 24.8498C14.1171 24.5276 14.5782 24.3665 15.1338 24.3665H19.5671C19.7449 24.3665 19.9005 24.2998 20.0338 24.1665C20.1671 24.0331 20.2338 23.8776 20.2338 23.6998C20.2338 23.522 20.1671 23.3665 20.0338 23.2331C19.9005 23.0998 19.7449 23.0331 19.5671 23.0331H15.1338C14.1782 23.0331 13.406 23.3331 12.8171 23.9331C12.2282 24.5331 11.9338 25.322 11.9338 26.2998C11.9338 26.7048 11.6055 27.0331 11.2005 27.0331H8.70046ZM16.0088 9.43314C15.2255 9.43314 14.5616 9.15958 14.0171 8.61247C13.4727 8.06536 13.2005 7.39447 13.2005 6.5998C13.2005 5.81425 13.4699 5.15125 14.0088 4.61081C14.5477 4.07014 15.2088 3.7998 15.9921 3.7998C16.7755 3.7998 17.4393 4.07158 17.9838 4.61514C18.5282 5.15869 18.8005 5.82536 18.8005 6.61514C18.8005 7.40492 18.531 8.07203 17.9921 8.61647C17.4532 9.16092 16.7921 9.43314 16.0088 9.43314Z"
            fill="white" />
    </g>
</svg>