<svg width="32" height="32" viewBox="0 0 32 32" fill="none" xmlns="http://www.w3.org/2000/svg">
    <mask id="mask0_114_157" style="mask-type:alpha" maskUnits="userSpaceOnUse" x="0" y="0" width="32" height="32">
        <rect width="32" height="32" fill="#D9D9D9" />
    </mask>
    <g mask="url(#mask0_114_157)">
        <path
            d="M23.4492 27.9334C22.3043 27.9334 21.371 27.5723 20.6492 26.85C19.9274 26.1278 19.5665 25.1943 19.5665 24.0494C19.5665 22.9045 19.9259 21.9711 20.6445 21.2494C21.3632 20.5276 22.2928 20.1667 23.4332 20.1667C23.7621 20.1667 24.0488 20.2021 24.2932 20.273C24.5811 20.3563 24.9332 20.1592 24.9332 19.8595V14.1334C24.9332 13.0288 25.8286 12.1334 26.9332 12.1334H28.7165C29.4805 12.1334 30.0999 12.7527 30.0999 13.5167C30.0999 14.2807 29.4805 14.9 28.7165 14.9C27.9525 14.9 27.3332 15.5194 27.3332 16.2834V24.0334C27.3332 25.1889 26.9721 26.1278 26.2499 26.85C25.5276 27.5723 24.5941 27.9334 23.4492 27.9334ZM13.0265 15.5334C11.3108 15.5334 9.91076 14.9911 8.82654 13.9067C7.74209 12.8225 7.19987 11.4225 7.19987 9.7067C7.19987 7.99114 7.74209 6.58892 8.82654 5.50003C9.91076 4.41114 11.3108 3.8667 13.0265 3.8667C14.7421 3.8667 16.1443 4.41114 17.2332 5.50003C18.3221 6.58892 18.8665 7.99114 18.8665 9.7067C18.8665 11.4225 18.3221 12.8225 17.2332 13.9067C16.1443 14.9911 14.7421 15.5334 13.0265 15.5334ZM3.5332 27.9334C2.42863 27.9334 1.5332 27.0379 1.5332 25.9334V23.9C1.5332 23.0403 1.76098 22.2141 2.21654 21.4217C2.67209 20.6295 3.34431 20.0334 4.2332 19.6334C5.92209 18.9 7.45554 18.3723 8.83354 18.05C10.2115 17.7278 11.6114 17.5667 13.0332 17.5667C14.3288 17.5667 15.5693 17.6945 16.7549 17.95C18.3358 18.2908 18.4797 20.507 17.8259 21.9861C17.6476 22.3893 17.5112 22.8217 17.4165 23.2834C17.3991 23.3685 17.3835 23.4531 17.3699 23.5372C17.0843 25.296 15.7866 27.9334 14.0048 27.9334H3.5332Z"
            fill="white" />
    </g>
</svg>