<svg width="32" height="32" viewBox="0 0 32 32" fill="none" xmlns="http://www.w3.org/2000/svg">
    <mask id="mask0_114_161" style="mask-type:alpha" maskUnits="userSpaceOnUse" x="0" y="0" width="32" height="32">
        <rect width="32" height="32" fill="#D9D9D9" />
    </mask>
    <g mask="url(#mask0_114_161)">
        <path
            d="M17.3552 29.9121C16.5539 30.505 15.4467 30.505 14.6457 29.9117C13.1584 28.8099 11.5704 27.9283 9.88166 27.2668C8.3215 26.6556 6.74852 26.26 5.16272 26.0798C4.06522 25.9551 3.16699 25.0714 3.16699 23.9668V13.2001C3.16699 12.0956 4.06534 11.1878 5.16264 11.3144C6.75855 11.4984 8.32667 11.9048 9.86699 12.5335C11.5518 13.2211 13.1568 14.1216 14.682 15.2349C15.4646 15.8061 16.536 15.8061 17.3188 15.2351C18.845 14.1217 20.4525 13.2212 22.1413 12.5335C23.6883 11.9035 25.265 11.4968 26.8713 11.3133C27.9687 11.1879 28.867 12.0956 28.867 13.2001V23.9668C28.867 25.0714 27.9688 25.9552 26.8712 26.0794C25.281 26.2594 23.7018 26.6552 22.1337 27.2668C20.4372 27.9284 18.8444 28.8102 17.3552 29.9121ZM16.113 12.0335C14.5712 12.0335 13.267 11.5002 12.2003 10.4338C11.1337 9.36758 10.6003 8.0578 10.6003 6.50446C10.6003 4.96046 11.1294 3.65158 12.1877 2.5778C13.2459 1.5038 14.5459 0.966797 16.0877 0.966797C17.6294 0.966797 18.9337 1.50524 20.0003 2.58213C21.067 3.65902 21.6003 4.97158 21.6003 6.5198C21.6003 8.06824 21.0712 9.37424 20.013 10.4378C18.9548 11.5016 17.6548 12.0335 16.113 12.0335Z"
            fill="white" />
    </g>
</svg>