<svg width="32" height="32" viewBox="0 0 32 32" fill="none" xmlns="http://www.w3.org/2000/svg">
    <mask id="mask0_114_160" style="mask-type:alpha" maskUnits="userSpaceOnUse" x="0" y="0" width="32" height="32">
        <rect width="32" height="32" fill="#D9D9D9" />
    </mask>
    <g mask="url(#mask0_114_160)">
        <path
            d="M13.6663 15.6335C12.9065 15.6335 12.2944 15.3613 11.8299 14.8168C11.3653 14.2724 11.1996 13.6335 11.3329 12.9002L11.7329 10.4335C11.9107 9.38905 12.3999 8.52794 13.2006 7.85016C14.0013 7.17238 14.9314 6.8335 15.9909 6.8335C17.0736 6.8335 18.0179 7.17238 18.8239 7.85016C19.6299 8.52794 20.1218 9.38905 20.2996 10.4335L20.6996 12.9002C20.8329 13.6335 20.6653 14.2724 20.1966 14.8168C19.7277 15.3613 19.1287 15.6335 18.3996 15.6335H13.6663ZM4.59128 18.2328C4.08572 18.2555 3.65128 18.1579 3.28794 17.9402C2.92461 17.7224 2.69294 17.3848 2.59294 16.9275C2.53072 16.7537 2.52183 16.5668 2.56628 16.3668C2.59786 16.2247 2.63505 16.0864 2.67784 15.9518C2.68803 15.9198 2.69731 15.6916 2.69002 15.6588C2.68961 15.657 2.6883 15.6518 2.68759 15.6501C2.67175 15.6118 2.59563 15.4088 2.45923 15.041C2.42399 14.946 2.39293 14.8486 2.38452 14.7476C2.36891 14.5603 2.39616 14.3736 2.46628 14.1875C2.55192 13.9601 2.67883 13.7597 2.847 13.5864C2.85969 13.5733 2.8743 13.5622 2.89013 13.5532C2.94829 13.52 2.98584 13.4603 2.99533 13.394C3.04914 13.0176 3.20245 12.7079 3.45528 12.4648C3.7315 12.1995 4.10183 12.0668 4.56628 12.0668C4.58718 12.0668 4.7556 12.0963 5.07153 12.1553C5.11178 12.1629 5.15333 12.16 5.19217 12.1471C5.21914 12.1381 5.24414 12.1242 5.26704 12.1074C5.3732 12.0293 5.50694 11.9602 5.66828 11.9002C5.84716 11.8335 6.01994 11.8002 6.18661 11.8002C6.41261 11.8002 6.62928 11.8446 6.83661 11.9335C7.02544 12.0145 7.16911 12.1221 7.26762 12.2565C7.28562 12.2811 7.31949 12.2906 7.33961 12.3135C7.34939 12.3244 7.36416 12.3298 7.38394 12.3298C7.6595 12.3516 7.91639 12.4392 8.15461 12.5925C8.39261 12.7458 8.55839 12.9644 8.65194 13.2482C8.68372 13.4011 8.69961 13.5429 8.69961 13.6738C8.69961 13.7847 8.68366 13.8957 8.65176 14.0067C8.64025 14.0468 8.63022 14.0707 8.6399 14.1112C8.65138 14.1593 8.6831 14.2192 8.7141 14.2577C8.8264 14.3972 8.92157 14.5471 8.99961 14.7075C9.0885 14.8899 9.13294 15.0778 9.13294 15.2712C9.13294 15.363 9.09293 15.5294 9.01291 15.7704C8.98274 15.8613 8.93398 15.9545 8.95994 16.0466C8.9618 16.0532 8.96391 16.06 8.96628 16.0668C8.9885 16.1557 8.99961 16.3322 8.99961 16.5962C8.99961 17.0511 8.80861 17.4376 8.42661 17.7558C8.04461 18.0738 7.58972 18.2328 7.06194 18.2328H4.59128ZM26.9273 18.1668C26.2199 18.1668 25.6163 17.9143 25.1163 17.4092C24.6163 16.9038 24.3663 16.2965 24.3663 15.5872C24.3663 15.3292 24.4056 15.0888 24.4843 14.8662C24.6265 14.4639 24.5632 13.9975 24.2392 13.7198L23.8663 13.4002C23.6663 13.2002 23.6329 12.9779 23.7663 12.7335C23.8996 12.4891 24.0946 12.3668 24.3513 12.3668H26.9176C27.6369 12.3668 28.2472 12.6182 28.7483 13.1208C29.2492 13.6235 29.4996 14.2277 29.4996 14.9335V15.5875C29.4996 16.3071 29.2477 16.9168 28.7439 17.4168C28.2402 17.9168 27.6346 18.1668 26.9273 18.1668ZM1.59961 24.4002C0.49504 24.4002 -0.400391 23.5047 -0.400391 22.4002V22.2178C-0.400391 21.2345 0.0990539 20.4413 1.09794 19.8382C2.09683 19.2351 3.40183 18.9335 5.01294 18.9335H5.39994C5.58113 18.9335 5.68761 19.1266 5.61909 19.2944C5.48565 19.6211 5.3736 19.9608 5.28294 20.3135C5.16072 20.7893 5.09961 21.2959 5.09961 21.8335V22.4002C5.09961 23.5047 4.20418 24.4002 3.09961 24.4002H1.59961ZM9.59961 24.4002C8.49504 24.4002 7.59961 23.5047 7.59961 22.4002V21.8335C7.59961 20.2519 8.37505 18.9843 9.92594 18.0305C11.4766 17.0769 13.4996 16.6002 15.9949 16.6002C18.5314 16.6002 20.5663 17.0769 22.0996 18.0305C23.6329 18.9843 24.3996 20.2519 24.3996 21.8335V22.4002C24.3996 23.5047 23.5042 24.4002 22.3996 24.4002H9.59961ZM26.9996 18.9335C28.6374 18.9335 29.9468 19.2341 30.9279 19.8352C31.9091 20.4361 32.3996 21.2355 32.3996 22.2335V22.4002C32.3996 23.5047 31.5042 24.4002 30.3996 24.4002H28.8996C27.795 24.4002 26.8996 23.5047 26.8996 22.4002V21.8192C26.8996 21.2903 26.8441 20.7889 26.7329 20.3152C26.6511 19.9663 26.5452 19.6291 26.4152 19.3034C26.3464 19.1308 26.4558 18.9335 26.6416 18.9335H26.9996Z"
            fill="white" />
    </g>
</svg>