<svg width="32" height="32" viewBox="0 0 32 32" fill="none" xmlns="http://www.w3.org/2000/svg">
    <mask id="mask0_159_687" style="mask-type:alpha" maskUnits="userSpaceOnUse" x="0" y="0" width="32" height="32">
        <rect width="32" height="32" fill="#D9D9D9" />
    </mask>
    <g mask="url(#mask0_159_687)">
        <path
            d="M7.66647 28.3665C6.91168 28.3665 6.2998 27.7546 6.2998 26.9998C6.2998 26.245 6.91168 25.6331 7.66647 25.6331H11.8665C12.6213 25.6331 13.2331 25.0213 13.2331 24.2665V23.3998C13.2331 23.1237 13.0093 22.8998 12.7331 22.8998C10.8887 22.8109 9.35536 22.1109 8.13314 20.7998C6.91092 19.4887 6.2998 17.922 6.2998 16.0998C6.2998 14.7443 6.67758 13.522 7.43314 12.4331C7.90283 11.7562 8.4584 11.1867 9.09985 10.7245C9.63141 10.3414 10.3208 10.8151 10.4831 11.4498C10.6589 12.1368 10.4439 12.9915 9.97506 13.5234C9.83038 13.6876 9.69973 13.8686 9.58314 14.0665C9.21647 14.6887 9.03314 15.3665 9.03314 16.0998C9.03314 17.2331 9.42758 18.1942 10.2165 18.9831C11.0054 19.772 11.9665 20.1665 13.0998 20.1665H23.6665C24.4213 20.1665 25.0331 20.7784 25.0331 21.5331C25.0331 22.2879 24.4213 22.8998 23.6665 22.8998H18.6665C17.9117 22.8998 17.2998 23.5117 17.2998 24.2665C17.2998 25.0213 17.9117 25.6331 18.6665 25.6331H24.3331C25.0879 25.6331 25.6998 26.245 25.6998 26.9998C25.6998 27.7546 25.0879 28.3665 24.3331 28.3665H7.66647ZM19.8865 16.3763C19.538 16.5019 19.1519 16.3349 19.0049 15.9948C18.8537 15.6453 18.4514 15.4802 18.0984 15.6228L17.8879 15.7078C17.401 15.9044 16.8479 15.6613 16.6635 15.1697L16.5308 14.8158C16.2887 14.1703 16.6224 13.4651 17.0985 12.9666C17.2594 12.7981 17.4043 12.6091 17.5331 12.3998C17.8887 11.822 18.0665 11.1887 18.0665 10.4998C18.0665 9.27758 17.6054 8.29425 16.6831 7.54981C16.0383 7.0293 15.3365 6.75051 14.5776 6.71343C13.9917 6.68481 13.4109 6.3979 13.1991 5.85088L13.103 5.60238C12.9172 5.12261 13.1563 4.58322 13.6364 4.39854L13.8943 4.29937C14.2292 4.17054 14.3972 3.79533 14.2702 3.45967C14.1403 3.11637 14.3191 2.73353 14.6657 2.61279L16.3767 2.01683C16.7258 1.89526 17.1088 2.06873 17.2477 2.41126C17.3883 2.758 17.7785 2.93076 18.1297 2.80175L18.3081 2.73622C18.7654 2.56822 19.2728 2.79914 19.4466 3.25433L23.0981 12.8219C23.282 13.3038 23.0341 13.8428 22.5485 14.0169L22.2877 14.1104C21.9464 14.2328 21.7717 14.6112 21.9 14.9503C22.0282 15.289 21.8541 15.6671 21.5134 15.7899L19.8865 16.3763ZM14.1998 12.2998C13.6887 12.2998 13.2609 12.1276 12.9165 11.7831C12.572 11.4387 12.3998 11.0109 12.3998 10.4998C12.3998 9.98869 12.572 9.55536 12.9165 9.19981C13.2609 8.84425 13.6887 8.66647 14.1998 8.66647C14.7109 8.66647 15.1442 8.84425 15.4998 9.19981C15.8554 9.55536 16.0331 9.98869 16.0331 10.4998C16.0331 11.0109 15.8554 11.4387 15.4998 11.7831C15.1442 12.1276 14.7109 12.2998 14.1998 12.2998Z"
            fill="white" />
    </g>
</svg>