<svg width="24" height="24" viewBox="0 0 24 24" fill="none" xmlns="http://www.w3.org/2000/svg">
  <mask id="a" style="mask-type:alpha" maskUnits="userSpaceOnUse" x="0" y="0" width="24" height="24">
    <path fill="#D9D9D9" d="M0 0h24v24H0z" />
  </mask>
  <g mask="url(#a)">
    <path
        d="M5 22q-.824 0-1.412-.587A1.93 1.93 0 0 1 3 20V6q0-.824.587-1.412A1.93 1.93 0 0 1 5 4a1 1 0 0 0 1-1 1 1 0 0 1 2 0 1 1 0 0 0 1 1h6a1 1 0 0 0 1-1 1 1 0 1 1 2 0 1 1 0 0 0 1 1q.824 0 1.413.588Q21 5.175 21 6v14q0 .824-.587 1.413A1.93 1.93 0 0 1 19 22zm0-3a1 1 0 0 0 1 1h12a1 1 0 0 0 1-1v-8a1 1 0 0 0-1-1H6a1 1 0 0 0-1 1zM5 7a1 1 0 0 0 1 1h12a1 1 0 1 0 0-2H6a1 1 0 0 0-1 1"
        fill="#fff" />
  </g>
</svg>