<svg width="24" height="24" viewBox="0 0 24 24" fill="none" xmlns="http://www.w3.org/2000/svg">
    <mask id="mask0_776_1910" style="mask-type:alpha" maskUnits="userSpaceOnUse" x="0" y="0" width="24" height="24">
        <rect width="24" height="24" fill="#D9D9D9" />
    </mask>
    <g mask="url(#mask0_776_1910)">
        <path
            d="M9.89289 15.4929C10.2834 15.8834 10.9166 15.8834 11.3071 15.4929L16.95 9.85C17.3366 9.4634 17.3366 8.8366 16.95 8.45V8.45C16.5634 8.0634 15.9366 8.0634 15.55 8.45L11.3071 12.6929C10.9166 13.0834 10.2834 13.0834 9.89289 12.6929L8.45 11.25C8.0634 10.8634 7.4366 10.8634 7.05 11.25V11.25C6.6634 11.6366 6.6634 12.2634 7.05 12.65L9.89289 15.4929ZM5 21C4.45 21 3.97917 20.8042 3.5875 20.4125C3.19583 20.0208 3 19.55 3 19V5C3 4.45 3.19583 3.97917 3.5875 3.5875C3.97917 3.19583 4.45 3 5 3H19C19.55 3 20.0208 3.19583 20.4125 3.5875C20.8042 3.97917 21 4.45 21 5V19C21 19.55 20.8042 20.0208 20.4125 20.4125C20.0208 20.8042 19.55 21 19 21H5ZM5 18C5 18.5523 5.44772 19 6 19H18C18.5523 19 19 18.5523 19 18V6C19 5.44772 18.5523 5 18 5H6C5.44772 5 5 5.44772 5 6V18Z"
            fill="white" />
    </g>
</svg>