<svg width="48" height="48" viewBox="0 0 48 48" fill="none" xmlns="http://www.w3.org/2000/svg">
    <mask id="a" style="mask-type:alpha" maskUnits="userSpaceOnUse" x="0" y="0" width="48" height="48">
        <path fill="#D9D9D9" d="M0 0h48v48H0z" />
    </mask>
    <g mask="url(#a)">
        <path
            d="M14.2 36.6a1.98 1.98 0 1 1-2.8-2.8l8.386-8.386a2 2 0 0 0 0-2.828L11.4 14.2a1.98 1.98 0 1 1 2.8-2.8l8.386 8.386a2 2 0 0 0 2.828 0L33.8 11.4a1.98 1.98 0 1 1 2.8 2.8l-8.386 8.386a2 2 0 0 0 0 2.828L36.6 33.8a1.98 1.98 0 1 1-2.8 2.8l-8.386-8.386a2 2 0 0 0-2.828 0z"
            fill="#fff" />
    </g>
</svg>