<svg width="64" height="64" viewBox="0 0 64 64" fill="none" xmlns="http://www.w3.org/2000/svg">
  <rect width="64" height="64" rx="32" fill="#0E1415" />
  <g clip-path="url(#a)" fill="#BCF0B4">
    <path
        d="M23.844 35.325c-.2 0-.449-.04-.659-.04-.269-.04-.569-.08-.818-.12-.08-.05-.12-.089-.2-.089-.1-.49-.51-.779-1.068-.7-1.028.21-2.276.37-3.175.95-1.038.618-1.986 1.357-3.024 1.946-2.267 1.228-4.623 2.306-6.81 3.674-.198.12-.039.41.18.32 4.254-1.937 9.105-2.516 13.069-4.953.838.22 2.066-.17 2.625-.578.18-.12.14-.41-.12-.41" />
    <path
        d="M50.35 33.259c-.74-.45-1.448-.899-1.988-1.607-.409-.53-1.117-3.794-1.816-4.083s-1.408 1.078-2.636 1.367c-.06 0-.06-.05-.1-.09-.07-.12-.15-.28-.33-.37-.079-.039-.119-.08-.199-.12-.17-.159-.29-.378-.399-.538-.18-.829-2.066-4.962-2.366-5.78-.16-.5-6.18 4.123-7.717 5.081-1.188.699-2.186 1.767-3.045 2.835-1.108 1.288-2.595 2.356-3.953 3.345-.41.3-.08.828.37.629 1.367-.7 2.964-.998 4.441-1.528.08-.04.18-.08.3-.13-.34.25-.709.51-1.158.74-3.953 2.285-6.728 5.95-10.841 7.976-.29.12-.1.619.229.529 2.326-.749 4.632-1.358 6.948-2.147 2.186-.738 3.784-2.605 5.481-4.073.699-.659 1.328-1.248 1.887-2.026.37-.45.37-.998.918-1.358.41-.33.919-.46 1.288-.829.679-.719.938-1.607 1.558-2.356.698-.868 1.307-1.896 1.966-2.805.1-.13.14-.24.14-.37.08-.089.16-.209.23-.289-.16.5-.12 1.039-.41 1.568a8.6 8.6 0 0 0-.619 1.896c-.2.82-.489 1.697-.698 2.516h-.04c-.74 1.028-1.717 2.097-2.087 3.345-.55 1.647-.958 2.765-2.316 4.002-.26.2.07.57.33.41 1.148-.829 2.256-2.027 3.543-2.646 1.078-.528 2.676-1.896 3.255-2.974.26-.41.34-.82.41-1.188.06-.08.139-.17.179-.24.49-.37.998-.7 1.407-1.108 0 .08.04.12.08.2-.22.32-.419.648-.489.938-.18.659-.22 1.358-.41 2.026-.209.62-.548 1.198-.658 1.868-.1.618.739 1.038 1.068.409.639-1.368 1.378-2.476 2.825-3.095.37-.18.74-.33 1.039-.55.21.29.36.58.579.84-.41 1.517-.699 3.094-.919 4.652-.04.09 0 .13.08.18-.529.938-1.058 1.886-1.228 2.954 0 .13 3.923-4.172 4.463-4.952v.25c-.08.25-.17.53-.12.859 0 .04-.51 1.198-.59 1.827v.17a9.7 9.7 0 0 0-.358 1.717v.22c-.04.279 4.402-1.988 4.891-1.828.33.09 2.356 1.318 3.105 1.318.42 0-4.003-6.669-5.52-7.587" />
  </g>
  <defs>
    <clipPath id="a">
      <path fill="#fff" d="M8 22h48v19.525H8z" />
    </clipPath>
  </defs>
</svg>