<svg width="417" height="48" viewBox="0 0 417 48" fill="none" xmlns="http://www.w3.org/2000/svg">
    <path
        d="M8.54 34.108q-2.016 0-3.612-.756a8 8 0 0 1-2.688-2.1Q1.148 29.908.56 28.06 0 26.212 0 24.028q0-2.465.644-4.34.672-1.904 1.792-3.192a7.2 7.2 0 0 1 2.632-1.932 7.8 7.8 0 0 1 3.192-.672q1.82 0 2.856.644 1.036.616 1.428 1.344h.14v-1.652h2.884v6.076h-2.884v-1.316q0-1.428-1.036-2.296-1.008-.868-2.856-.868-2.184 0-3.332 1.428t-1.148 4.032v5.012q0 2.744 1.344 4.116 1.373 1.344 3.612 1.344 1.848 0 3.108-.952 1.289-.98 1.932-2.576l1.428.812a7.5 7.5 0 0 1-.98 1.932 6.9 6.9 0 0 1-1.54 1.596 7.4 7.4 0 0 1-2.072 1.12q-1.176.42-2.604.42m11.298-2.016h1.428l6.16-17.864h3.5l6.16 17.864h1.428v1.68h-7.756v-1.68h2.324l-1.456-4.396h-6.748l-1.456 4.396h2.324v1.68h-5.908zm5.544-6.16h5.74l-2.8-8.68h-.14zm17.592 6.16h1.988V15.908h-1.988v-1.68h6.44l4.704 10.192h.112l4.704-10.192h6.384v1.68H63.33v16.184h1.988v1.68h-7.896v-1.68h1.988V17.504h-.14l-1.512 3.668-4.564 9.52-4.564-9.52-1.512-3.668h-.14v14.588h1.988v1.68h-5.992zm27.656 0h1.988V15.908H70.63v-1.68h10.304q2.967 0 4.452 1.344t1.484 3.976q0 2.632-1.596 4.116-1.596 1.455-4.536 1.456h-4.2v6.972h2.66v1.68H70.63zm5.908-8.82h3.248q1.455 0 2.24-.756.812-.756.812-2.156v-1.4q0-1.4-.812-2.156-.785-.756-2.24-.756h-3.248zm15.512 8.82h1.989V15.908H92.05v-1.68h15.26v5.068h-2.884v-3.248h-6.468v7.028h4.256v-1.848h1.932v5.516h-1.932v-1.848h-4.256v7.196h2.66v1.68H92.05zm20.547 0h1.988V15.908h-1.988v-1.68h7.896v1.68h-1.988v16.184h1.988v1.68h-7.896zm13.218 0h1.988V15.908h-1.988v-1.68h10.444q1.289 0 2.352.308 1.064.28 1.82.896.784.615 1.204 1.568.42.952.42 2.24 0 2.016-1.204 3.332t-3.108 1.708l3.528 6.076q.56.98 1.176 1.372.616.364 1.568.364h.168v1.68h-2.38a8.4 8.4 0 0 1-1.624-.14 4.1 4.1 0 0 1-1.204-.504 3.8 3.8 0 0 1-.896-.84 8.6 8.6 0 0 1-.756-1.176l-3.136-6.104h-2.464v7.084h1.988v1.68h-7.896zm5.908-8.82h3.276q1.484 0 2.24-.728.784-.727.784-2.1v-1.568q0-1.372-.784-2.1-.756-.728-2.24-.728h-3.276zm16.935 8.82h1.988V15.908h-1.988v-1.68h15.26v5.068h-2.884v-3.248h-6.468v6.664h4.256v-1.848h1.932v5.516h-1.932v-1.848h-4.256v7.42h6.692v-3.696h2.884v5.516h-15.484zm70.435.666c-.49 0-1.104-.099-1.62-.099-.662-.098-1.399-.196-2.012-.294-.197-.123-.295-.22-.491-.22-.245-1.204-1.252-1.915-2.626-1.719-2.528.516-5.596.908-7.804 2.332-2.553 1.521-4.884 3.337-7.436 4.785-5.571 3.02-11.363 5.67-16.738 9.032-.49.294-.098 1.006.442.785 10.455-4.76 22.382-6.184 32.125-12.173 2.062.54 5.08-.417 6.455-1.423.441-.295.343-1.006-.295-1.006"
        fill="#BCF0B4" />
    <path
        d="M284.251 27.677c-1.816-1.104-3.558-2.208-4.884-3.95-1.006-1.302-2.748-9.327-4.466-10.038-1.718-.71-3.46 2.65-6.48 3.362-.147 0-.147-.123-.245-.22-.172-.296-.368-.688-.81-.909-.196-.098-.294-.197-.49-.295-.418-.392-.712-.932-.982-1.325-.442-2.037-5.08-12.197-5.817-14.21-.392-1.227-15.191 10.136-18.97 12.492-2.92 1.718-5.375 4.344-7.486 6.97-2.724 3.166-6.38 5.792-9.718 8.222-1.007.736-.197 2.037.908 1.546 3.362-1.718 7.289-2.454 10.92-3.755.197-.098.443-.197.737-.32-.834.614-1.742 1.252-2.847 1.817-9.718 5.62-16.54 14.627-26.652 19.61-.712.293-.246 1.52.564 1.3 5.718-1.84 11.388-3.338 17.081-5.277 5.375-1.816 9.302-6.405 13.474-10.013 1.718-1.62 3.264-3.068 4.638-4.982.908-1.104.908-2.454 2.258-3.338 1.006-.81 2.258-1.129 3.166-2.037 1.669-1.767 2.307-3.95 3.829-5.792 1.718-2.135 3.215-4.662 4.834-6.896.246-.319.344-.589.344-.908.196-.22.393-.515.564-.712-.392 1.227-.294 2.553-1.006 3.854-.711 1.521-1.178 3.043-1.521 4.662-.491 2.013-1.203 4.172-1.718 6.185h-.099c-1.816 2.528-4.22 5.154-5.129 8.222-1.35 4.05-2.356 6.798-5.693 9.84-.639.492.171 1.4.81 1.007 2.822-2.037 5.546-4.982 8.712-6.504 2.65-1.3 6.577-4.662 8-7.313.638-1.006.835-2.013 1.007-2.92.147-.197.343-.418.441-.59 1.203-.908 2.455-1.718 3.46-2.724 0 .197.099.295.197.491-.54.786-1.03 1.595-1.202 2.307-.442 1.62-.54 3.338-1.007 4.982-.515 1.522-1.35 2.945-1.62 4.59-.245 1.521 1.817 2.552 2.627 1.006 1.57-3.363 3.386-6.087 6.945-7.608.908-.442 1.816-.81 2.552-1.35.516.712.884 1.423 1.424 2.061-1.007 3.73-1.718 7.608-2.258 11.437-.098.22 0 .32.196.442-1.3 2.307-2.601 4.638-3.018 7.264 0 .32 9.644-10.258 10.97-12.173v.614c-.197.613-.417 1.3-.295 2.11 0 .1-1.251 2.945-1.448 4.492v.417c-.417 1.3-.687 2.7-.883 4.221v.54c-.098.687 10.823-4.884 12.025-4.49.81.22 5.792 3.24 7.633 3.24 1.031 0-9.841-16.396-13.572-18.654m38.18 6.431q-2.016 0-3.612-.756a7.95 7.95 0 0 1-2.688-2.1q-1.092-1.344-1.68-3.192-.56-1.848-.56-4.032 0-2.465.644-4.34.672-1.904 1.792-3.192a7.2 7.2 0 0 1 2.632-1.932 7.8 7.8 0 0 1 3.192-.672q1.82 0 2.856.644 1.035.616 1.428 1.344h.14v-1.652h2.884v6.076h-2.884v-1.316q0-1.428-1.036-2.296-1.008-.868-2.856-.868-2.184 0-3.332 1.428-1.149 1.428-1.148 4.032v5.012q0 2.744 1.344 4.116 1.371 1.344 3.612 1.344 1.848 0 3.108-.952 1.287-.98 1.932-2.576l1.428.812a7.6 7.6 0 0 1-.98 1.932 7 7 0 0 1-1.54 1.596 7.4 7.4 0 0 1-2.072 1.12q-1.176.42-2.604.42m12.575-2.016h1.988V15.908h-1.988v-1.68h10.444q1.288 0 2.352.308 1.064.28 1.82.896.784.615 1.204 1.568.42.952.42 2.24 0 2.016-1.204 3.332t-3.108 1.708l3.528 6.076q.561.98 1.176 1.372.617.364 1.568.364h.168v1.68h-2.38a8.4 8.4 0 0 1-1.624-.14 4.1 4.1 0 0 1-1.204-.504 3.8 3.8 0 0 1-.896-.84 8.6 8.6 0 0 1-.756-1.176l-3.136-6.104h-2.464v7.084h1.988v1.68h-7.896zm5.908-8.82h3.276q1.484 0 2.24-.728.784-.727.784-2.1v-1.568q0-1.372-.784-2.1-.756-.728-2.24-.728h-3.276zm16.341 8.82h1.428l6.16-17.864h3.5l6.16 17.864h1.428v1.68h-7.756v-1.68h2.324l-1.456-4.396h-6.748l-1.456 4.396h2.324v1.68h-5.908zm5.544-6.16h5.74l-2.8-8.68h-.14zm17.733 6.048 10.584-15.932h-7.336v3.248h-2.884v-5.068h14.672v1.792l-10.584 15.932h7.98v-3.696h2.884v5.516h-15.316zm20.816.112h1.988V15.908h-1.988v-1.68h15.26v5.068h-2.884v-3.248h-6.468v6.664h4.256v-1.848h1.932v5.516h-1.932v-1.848h-4.256v7.42h6.692v-3.696h2.884v5.516h-15.484z"
        fill="#BCF0B4" />
</svg>