<svg width="59" height="24" viewBox="0 0 59 24" fill="none" xmlns="http://www.w3.org/2000/svg">
    <g clip-path="url(#a)" fill="#BCF0B4">
        <path
            d="M19.475 16.38c-.245 0-.552-.05-.81-.05-.33-.05-.7-.098-1.006-.147-.098-.062-.147-.11-.245-.11-.123-.602-.626-.958-1.313-.86-1.264.258-2.798.454-3.902 1.166-1.277.76-2.442 1.669-3.718 2.393-2.786 1.51-5.682 2.835-8.37 4.516-.244.147-.048.503.222.392 5.227-2.38 11.19-3.092 16.062-6.086 1.031.27 2.54-.209 3.228-.712.22-.147.171-.503-.148-.503" />
        <path
            d="M52.054 13.839c-.908-.552-1.779-1.104-2.442-1.975-.503-.651-1.374-4.664-2.233-5.02s-1.73 1.326-3.24 1.682c-.073 0-.073-.062-.122-.11-.086-.148-.184-.344-.405-.455-.098-.049-.147-.098-.245-.147-.21-.196-.356-.466-.491-.663-.221-1.018-2.54-6.098-2.909-7.105-.196-.613-7.595 5.068-9.485 6.246-1.46.86-2.687 2.172-3.743 3.485-1.362 1.583-3.19 2.896-4.859 4.111-.503.368-.098 1.019.454.773 1.681-.859 3.645-1.227 5.46-1.877.099-.05.222-.099.369-.16a10 10 0 0 1-1.424.908c-4.859 2.81-8.27 7.314-13.326 9.805-.356.147-.123.76.282.65 2.86-.92 5.694-1.669 8.54-2.638 2.688-.908 4.652-3.203 6.738-5.007.859-.81 1.632-1.534 2.319-2.49.454-.553.454-1.228 1.129-1.67.503-.405 1.129-.564 1.583-1.018.834-.884 1.153-1.975 1.914-2.896.86-1.068 1.608-2.331 2.417-3.448.123-.16.172-.295.172-.454.098-.11.197-.258.282-.356-.196.613-.147 1.276-.503 1.927-.355.76-.589 1.521-.76 2.33-.246 1.007-.602 2.087-.86 3.093h-.049c-.908 1.264-2.11 2.577-2.564 4.111-.675 2.025-1.178 3.4-2.847 4.92-.32.246.086.7.405.504 1.411-1.019 2.773-2.491 4.356-3.252 1.325-.65 3.289-2.331 4-3.657.32-.503.418-1.006.504-1.46.073-.098.171-.209.22-.295.602-.454 1.228-.859 1.73-1.362 0 .099.05.148.099.246-.27.393-.515.797-.601 1.153-.221.81-.27 1.67-.504 2.491-.257.761-.675 1.473-.81 2.295-.122.76.909 1.276 1.314.503.785-1.681 1.693-3.043 3.472-3.804.454-.22.908-.405 1.276-.675.258.356.442.712.712 1.03-.503 1.866-.859 3.805-1.129 5.72-.049.11 0 .159.098.22-.65 1.154-1.3 2.32-1.51 3.632 0 .16 4.823-5.129 5.486-6.086v.307c-.098.306-.208.65-.147 1.055 0 .05-.626 1.472-.724 2.246v.208c-.209.65-.344 1.35-.442 2.11v.27c-.049.344 5.412-2.441 6.013-2.245.405.11 2.896 1.62 3.816 1.62.516 0-4.92-8.197-6.786-9.326" />
    </g>
    <defs>
        <clipPath id="a">
            <path fill="#fff" d="M0 0h59v24H0z" />
        </clipPath>
    </defs>
</svg>