<svg width="64" height="64" viewBox="0 0 64 64" fill="none" xmlns="http://www.w3.org/2000/svg">
    <path
        d="M0 8C0 3.58172 3.58172 0 8 0H56C60.4183 0 64 3.58172 64 8V56C64 60.4183 60.4183 64 56 64H8C3.58172 64 0 60.4183 0 56V8Z"
        fill="white" fill-opacity="0.2" />
    <path
        d="M45.066 8H37.866C34.6834 8 31.6312 9.26428 29.3807 11.5147C27.1303 13.7652 25.866 16.8174 25.866 20V27.2H18.666V36.8H25.866V56H35.466V36.8H42.666L45.066 27.2H35.466V20C35.466 19.3635 35.7189 18.753 36.169 18.3029C36.619 17.8529 37.2295 17.6 37.866 17.6H45.066V8Z"
        stroke="white" stroke-width="3" stroke-linecap="round" stroke-linejoin="round" />
</svg>