<svg width="64" height="64" viewBox="0 0 64 64" fill="none" xmlns="http://www.w3.org/2000/svg">
    <path
        d="M0 8C0 3.58172 3.58172 0 8 0H56C60.4183 0 64 3.58172 64 8V56C64 60.4183 60.4183 64 56 64H8C3.58172 64 0 60.4183 0 56V8Z"
        fill="white" fill-opacity="0.2" />
    <path
        d="M42.2673 21.7335H42.286M22.6673 13.3335H41.334C46.4886 13.3335 50.6673 17.5122 50.6673 22.6668V41.3335C50.6673 46.4882 46.4886 50.6668 41.334 50.6668H22.6673C17.5127 50.6668 13.334 46.4882 13.334 41.3335V22.6668C13.334 17.5122 17.5127 13.3335 22.6673 13.3335ZM39.4673 30.8242C39.6977 32.3777 39.4323 33.9643 38.709 35.3583C37.9857 36.7523 36.8412 37.8828 35.4384 38.5889C34.0355 39.295 32.4458 39.5407 30.8952 39.2912C29.3446 39.0417 27.9122 38.3096 26.8017 37.1991C25.6912 36.0886 24.9591 34.6562 24.7096 33.1056C24.4601 31.5551 24.7058 29.9653 25.4119 28.5625C26.118 27.1596 27.2485 26.0151 28.6425 25.2918C30.0365 24.5685 31.6231 24.3031 33.1767 24.5335C34.7613 24.7685 36.2284 25.5069 37.3611 26.6397C38.4939 27.7724 39.2323 29.2395 39.4673 30.8242Z"
        stroke="white" stroke-width="3" stroke-linecap="round" stroke-linejoin="round" />
</svg>