<svg width="64" height="64" viewBox="0 0 64 64" fill="none" xmlns="http://www.w3.org/2000/svg">
    <path
        d="M0 8C0 3.58172 3.58172 0 8 0H56C60.4183 0 64 3.58172 64 8V56C64 60.4183 60.4183 64 56 64H8C3.58172 64 0 60.4183 0 56V8Z"
        fill="white" fill-opacity="0.2" />
    <path
        d="M39.4673 25.8665C42.4377 25.8665 45.2865 27.0465 47.3869 29.1469C49.4873 31.2473 50.6673 34.0961 50.6673 37.0665V50.1332H43.2006V37.0665C43.2006 36.0764 42.8073 35.1268 42.1072 34.4266C41.407 33.7265 40.4575 33.3332 39.4673 33.3332C38.4772 33.3332 37.5276 33.7265 36.8275 34.4266C36.1273 35.1268 35.734 36.0764 35.734 37.0665V50.1332H28.2673V37.0665C28.2673 34.0961 29.4473 31.2473 31.5477 29.1469C33.6481 27.0465 36.4969 25.8665 39.4673 25.8665Z"
        stroke="white" stroke-width="2" stroke-linecap="round" stroke-linejoin="round" />
    <path d="M20.8007 27.7332H13.334V50.1332H20.8007V27.7332Z" stroke="white" stroke-width="2" stroke-linecap="round"
        stroke-linejoin="round" />
    <path
        d="M17.0673 22.1332C19.1292 22.1332 20.8007 20.4617 20.8007 18.3998C20.8007 16.338 19.1292 14.6665 17.0673 14.6665C15.0055 14.6665 13.334 16.338 13.334 18.3998C13.334 20.4617 15.0055 22.1332 17.0673 22.1332Z"
        stroke="white" stroke-width="2" stroke-linecap="round" stroke-linejoin="round" />
</svg>